<svg version="1.1" xmlns="http://www.w3.org/2000/svg" viewBox="0 0 496.7000732421874 520.5999526977539" width="496.7000732421874" height="520.5999526977539">
  <!-- svg-source:excalidraw -->
  
  <defs>
    <style>
      @font-face {
        font-family: "Virgil";
        src: url("https://excalidraw.com/Virgil.woff2");
      }
      @font-face {
        font-family: "Cascadia";
        src: url("https://excalidraw.com/Cascadia.woff2");
      }
    </style>
  </defs>
  <rect x="0" y="0" width="496.7000732421874" height="520.5999526977539" fill="#ffffff"></rect><g stroke-linecap="round" transform="translate(234.49984741210932 314.59993743896484) rotate(0 89.9000701904298 82.4000015258789)"><path d="M0.9 -0.34 C49.62 0.59, 99.85 -0.71, 178.45 -1.02 M0.43 0.94 C57.8 -2.21, 117.11 -1.73, 180.75 0.14 M179.49 1.23 C182.28 45.11, 181.17 90.55, 179.18 164.27 M180.01 -0.02 C179.23 41.34, 178.08 82.68, 180.11 165.56 M181.44 163.24 C128.66 165.13, 76.53 162.88, -1.64 163.65 M180.45 164.93 C112.77 164.99, 47.67 165.71, 0.48 164.24 M-1.2 163.48 C-0.14 122.86, -1.67 81.92, -0.38 1.66 M0.09 165.48 C1.88 117.6, 1.49 70.03, -0.59 -0.96" stroke="#000000" stroke-width="1" fill="none"></path></g><g stroke-linecap="round" transform="translate(348.10009765624994 10) rotate(0 69.29998779296872 71.60000610351562)"><path d="M88.4 3.27 C98.02 5.09, 107.81 11.53, 115.37 18.31 C122.92 25.09, 129.84 34.31, 133.72 43.94 C137.61 53.57, 139.19 65.74, 138.67 76.09 C138.14 86.43, 135.37 97.12, 130.55 105.98 C125.74 114.84, 117.86 123.25, 109.79 129.23 C101.72 135.2, 92.01 139.87, 82.14 141.84 C72.28 143.81, 60.31 143.92, 50.59 141.03 C40.88 138.15, 31.32 131.65, 23.88 124.54 C16.44 117.43, 9.84 107.96, 5.96 98.4 C2.07 88.84, 0.02 77.44, 0.56 67.18 C1.1 56.93, 4.53 45.66, 9.19 36.85 C13.86 28.04, 20.5 20.44, 28.56 14.33 C36.62 8.22, 47.29 2.02, 57.55 0.18 C67.81 -1.67, 84.33 2.29, 90.11 3.24 C95.89 4.19, 92.6 4.66, 92.24 5.88 M80.78 1.6 C90.23 2.7, 101.61 8.91, 109.92 14.89 C118.23 20.87, 125.82 28.54, 130.67 37.48 C135.52 46.42, 138.43 58.1, 139.03 68.54 C139.63 78.98, 138.11 90.41, 134.26 100.14 C130.42 109.86, 123.65 120.38, 115.96 126.91 C108.26 133.43, 97.74 136.77, 88.08 139.28 C78.42 141.79, 68.07 143.76, 58.02 141.96 C47.97 140.17, 36.2 134.7, 27.8 128.53 C19.39 122.35, 12.07 113.85, 7.6 104.92 C3.13 95.99, 1.11 85.47, 0.97 74.96 C0.82 64.46, 3.06 51.53, 6.73 41.89 C10.41 32.26, 15.77 23.52, 23 17.14 C30.23 10.75, 40.5 6.17, 50.11 3.56 C59.72 0.95, 75.54 1.69, 80.64 1.46 C85.74 1.24, 80.91 0.82, 80.69 2.19" stroke="#000000" stroke-width="1" fill="none"></path></g><g transform="translate(398.9000854492187 69.10000610351562) rotate(0 18.49999999999997 12.5)"><text x="0" y="18" font-family="Virgil, Segoe UI Emoji" font-size="20px" fill="#000000" text-anchor="start" style="white-space: pre;" direction="ltr">IAS</text></g><g stroke-linecap="round" transform="translate(10 10) rotate(0 69.29998779296875 71.60000610351562)"><path d="M94.43 5 C103.64 7.55, 113.48 14.79, 120.29 22.32 C127.1 29.86, 132.21 40.34, 135.31 50.2 C138.4 60.07, 140.29 71.28, 138.85 81.49 C137.41 91.69, 132.54 102.88, 126.68 111.43 C120.81 119.98, 112.27 127.39, 103.68 132.79 C95.08 138.19, 85 142.79, 75.11 143.83 C65.23 144.87, 53.64 142.95, 44.36 139.03 C35.09 135.1, 26.44 128.02, 19.46 120.28 C12.49 112.54, 5.7 102.27, 2.53 92.6 C-0.64 82.92, -0.95 72.42, 0.43 62.21 C1.82 52.01, 5.28 40.09, 10.84 31.37 C16.39 22.66, 24.79 15.16, 33.76 9.93 C42.72 4.7, 53.98 0.8, 64.64 0.01 C75.3 -0.78, 91.95 3.85, 97.71 5.19 C103.46 6.53, 99.76 6.98, 99.16 8.04 M54.1 1.5 C63.18 -1.74, 74.2 0.16, 83.73 2.27 C93.25 4.38, 103.1 7.87, 111.25 14.17 C119.39 20.47, 128.04 30.68, 132.59 40.08 C137.14 49.48, 138.44 60.19, 138.56 70.56 C138.68 80.93, 137.75 92.67, 133.31 102.32 C128.86 111.96, 120.15 121.8, 111.91 128.4 C103.67 135, 93.25 139.83, 83.86 141.92 C74.47 144.02, 65.2 143.19, 55.57 141 C45.95 138.81, 34 135.2, 26.09 128.79 C18.18 122.37, 12.51 111.74, 8.11 102.5 C3.71 93.26, 0.08 83.83, -0.33 73.32 C-0.74 62.82, 1.38 48.78, 5.65 39.45 C9.92 30.12, 17.28 23.5, 25.27 17.34 C33.27 11.18, 48.73 4.96, 53.62 2.47 C58.51 -0.02, 54.24 1.5, 54.63 2.42" stroke="#000000" stroke-width="1" fill="none"></path></g><g transform="translate(66.29998779296875 69.10000610351562) rotate(0 13 12.5)"><text x="0" y="18" font-family="Virgil, Segoe UI Emoji" font-size="20px" fill="#000000" text-anchor="start" style="white-space: pre;" direction="ltr">SP</text></g><g transform="translate(290.4999389648437 485.5999526977539) rotate(0 35.5 12.5)"><text x="0" y="18" font-family="Virgil, Segoe UI Emoji" font-size="20px" fill="#000000" text-anchor="start" style="white-space: pre;" direction="ltr">enclave</text></g><g stroke-linecap="round"><g transform="translate(170.8635121516272 78.946021655098) rotate(358.5698469070366 76.45714138991076 0.31733021568850006)"><path d="M-0.46 -0.52 C24.97 -0.25, 127.89 0.87, 153.38 1.15" stroke="#000000" stroke-width="1.5" fill="none" stroke-dasharray="8 9"></path></g><g transform="translate(170.8635121516272 78.946021655098) rotate(358.5698469070366 76.45714138991076 0.31733021568850006)"><path d="M124.21 11.87 C134.4 6.86, 144.76 4.96, 155.14 1.57" stroke="#000000" stroke-width="1.5" fill="none"></path></g><g transform="translate(170.8635121516272 78.946021655098) rotate(358.5698469070366 76.45714138991076 0.31733021568850006)"><path d="M124.43 -8.65 C134.47 -6.2, 144.75 -0.64, 155.14 1.57" stroke="#000000" stroke-width="1.5" fill="none"></path></g></g><g transform="translate(150.50012207031244 20.999916076660156) rotate(0 93 12.5)"><text x="0" y="18" font-family="Virgil, Segoe UI Emoji" font-size="20px" fill="#000000" text-anchor="start" style="white-space: pre;" direction="ltr">must be registered</text></g><g stroke-linecap="round" transform="translate(140.09997558593744 255.40003204345703) rotate(0 36 53.20001220703125)"><path d="M35.23 -0.98 C49.24 18.98, 63.55 38.35, 70.64 55.58 M36.3 0.35 C48.17 17.59, 60.19 35.54, 72.14 54.82 M71.65 52.87 C60.31 69.83, 51.45 83.35, 36.46 106.39 M71.66 53.71 C59.68 70.8, 49.12 86.31, 36.2 105.81 M36.24 107.05 C27.46 94.33, 16.37 80.38, 1.97 55.4 M36.73 106.48 C25.89 92.45, 16.98 77.33, -0.03 54.57 M-1.55 55.53 C12.08 38.88, 24.29 21.27, 37.57 0.37 M0.09 53.39 C11.46 37.98, 22.93 19.05, 37.16 0.15" stroke="#000000" stroke-width="1" fill="none"></path></g><g transform="translate(144.69997558593747 296.1000442504883) rotate(0 31 12.5)"><text x="31" y="18" font-family="Virgil, Segoe UI Emoji" font-size="20px" fill="#000000" text-anchor="middle" style="white-space: pre;" direction="ltr">app</text></g><g stroke-linecap="round" transform="translate(392.69989013671864 281.1998977661133) rotate(0 46.79998779296875 47.59996032714844)"><path d="M1.57 -0.66 L92.9 -0.15 L94.43 94.77 L-0.39 95.31" stroke="none" stroke-width="0" fill="#ffffff"></path><path d="M1.44 1.96 C32.16 -0.79, 61.93 -1.71, 93.3 1.07 M0.13 0.39 C29.79 1.3, 58.55 -0.26, 94.27 -0.73 M95.09 -0.21 C93.78 38.31, 94.09 77.32, 93.98 95.41 M94.45 -0.74 C93.8 21.7, 93.17 43.08, 93.81 94.49 M93.15 94.67 C62.06 93.39, 32.71 93.83, 1.31 93.62 M92.76 95.37 C58.76 93.66, 24.58 93.67, 0.78 94.23 M0.09 94.23 C2.06 71.63, 0.66 46.22, -1.28 0.33 M0.41 94.52 C-0.53 73.38, -0.88 50.95, -0.5 -0.01" stroke="#000000" stroke-width="1" fill="none"></path></g><g transform="translate(397.9998901367186 303.7998580932617) rotate(0 41.5 25)"><text x="41.5" y="18" font-family="Virgil, Segoe UI Emoji" font-size="20px" fill="#000000" text-anchor="middle" style="white-space: pre;" direction="ltr">SGX</text><text x="41.5" y="43" font-family="Virgil, Segoe UI Emoji" font-size="20px" fill="#000000" text-anchor="middle" style="white-space: pre;" direction="ltr">CPU</text></g><g stroke-linecap="round"><g transform="translate(334.2372343256456 147.29086770268484) rotate(0 -59.806111004722254 62.50723034012094)"><path d="M0.81 -0.07 C-19.14 20.73, -99.47 103.95, -119.28 125.13 M-0.23 -1.15 C-20.41 19.73, -100.73 105.12, -120.42 126.16" stroke="#000000" stroke-width="1" fill="none"></path></g><g transform="translate(334.2372343256456 147.29086770268484) rotate(0 -59.806111004722254 62.50723034012094)"><path d="M-108.72 97.98 C-114.09 109.33, -114.94 117.33, -120.87 127.99 M-108.7 97.7 C-112.31 108.49, -116.57 118.28, -119.44 126.37" stroke="#000000" stroke-width="1" fill="none"></path></g><g transform="translate(334.2372343256456 147.29086770268484) rotate(0 -59.806111004722254 62.50723034012094)"><path d="M-93.76 112.03 C-104.19 118.77, -110.05 122.06, -120.87 127.99 M-93.74 111.75 C-102.91 117.17, -112.78 121.69, -119.44 126.37" stroke="#000000" stroke-width="1" fill="none"></path></g></g><g stroke-linecap="round"><g transform="translate(390.54600660088045 296.42892625939027) rotate(0 -87.18987365653334 -0.7519564534441088)"><path d="M0.85 0.77 C-28.2 0.78, -145.07 -0.22, -174.57 -0.36 M-0.16 0.13 C-29.3 -0.19, -146.3 -1.9, -175.23 -2.28" stroke="#000000" stroke-width="1" fill="none"></path></g><g transform="translate(390.54600660088045 296.42892625939027) rotate(0 -87.18987365653334 -0.7519564534441088)"><path d="M-26.12 11.75 C-18.82 6.14, -10.54 6.05, 1.89 0.36 M-26.41 10.23 C-16.87 6.71, -4.75 2.9, 1.51 0.64" stroke="#000000" stroke-width="1" fill="none"></path></g><g transform="translate(390.54600660088045 296.42892625939027) rotate(0 -87.18987365653334 -0.7519564534441088)"><path d="M-25.99 -8.77 C-18.8 -8.66, -10.56 -3.03, 1.89 0.36 M-26.28 -10.29 C-16.83 -5.63, -4.76 -1.27, 1.51 0.64" stroke="#000000" stroke-width="1" fill="none"></path></g><g transform="translate(390.54600660088045 296.42892625939027) rotate(0 -87.18987365653334 -0.7519564534441088)"><path d="M-145.61 -11.24 C-154.16 -10.89, -161.66 -5.42, -174.19 -2.69 M-145.9 -12.77 C-158.95 -8.3, -169.37 -4.16, -174.57 -2.41" stroke="#000000" stroke-width="1" fill="none"></path></g><g transform="translate(390.54600660088045 296.42892625939027) rotate(0 -87.18987365653334 -0.7519564534441088)"><path d="M-145.9 9.27 C-154.29 3.9, -161.71 3.65, -174.19 -2.69 M-146.19 7.75 C-159.08 4.05, -169.39 0.01, -174.57 -2.41" stroke="#000000" stroke-width="1" fill="none"></path></g></g><g transform="translate(261.9785363333566 258.54042888823017) rotate(0 81 12.5)"><text x="0" y="18" font-family="Virgil, Segoe UI Emoji" font-size="20px" fill="#000000" text-anchor="start" style="white-space: pre;" direction="ltr">1. request quote</text></g><g stroke-linecap="round"><g transform="translate(206.1785485403879 252.54048992338642) rotate(0 61.86112492084504 -68.48603810567874)"><path d="M-0.92 0.91 C19.88 -21.87, 103.75 -113.29, 124.64 -136.18 M0.8 0.34 C21.42 -22.82, 103.07 -114.73, 123.5 -137.88" stroke="#000000" stroke-width="1" fill="none"></path></g><g transform="translate(206.1785485403879 252.54048992338642) rotate(0 61.86112492084504 -68.48603810567874)"><path d="M114 -110.57 C116.9 -118.83, 119.58 -125.03, 123.19 -138.7 M112.77 -110.26 C115.56 -120.01, 119.39 -129.45, 122.69 -137.66" stroke="#000000" stroke-width="1" fill="none"></path></g><g transform="translate(206.1785485403879 252.54048992338642) rotate(0 61.86112492084504 -68.48603810567874)"><path d="M98.64 -124.18 C106.01 -128.41, 113.1 -130.69, 123.19 -138.7 M97.41 -123.87 C105.2 -129.24, 114.1 -134.19, 122.69 -137.66" stroke="#000000" stroke-width="1" fill="none"></path></g></g><g transform="translate(206.1785485403879 137.54048992338642) rotate(0 36 25)"><text x="0" y="18" font-family="Virgil, Segoe UI Emoji" font-size="20px" fill="#000000" text-anchor="start" style="white-space: pre;" direction="ltr">2. send</text><text x="0" y="43" font-family="Virgil, Segoe UI Emoji" font-size="20px" fill="#000000" text-anchor="start" style="white-space: pre;" direction="ltr">quote</text></g><g transform="translate(303.1785485403879 179.74047161283954) rotate(0 47 25)"><text x="0" y="18" font-family="Virgil, Segoe UI Emoji" font-size="20px" fill="#000000" text-anchor="start" style="white-space: pre;" direction="ltr">3. certify</text><text x="0" y="43" font-family="Virgil, Segoe UI Emoji" font-size="20px" fill="#000000" text-anchor="start" style="white-space: pre;" direction="ltr">quote</text></g><g stroke-linecap="round" transform="translate(315.1785485403879 340.5404899233864) rotate(0 37 56.5)"><path d="M37.74 1.54 C50.57 19.32, 62.54 38.03, 75.68 55.43 M37.79 0.65 C52.33 21.37, 65.71 42.6, 73.05 57.98 M72.49 58.66 C64.96 70.64, 53.82 86.68, 39.19 112.34 M74.04 56.71 C61.26 78.48, 46.37 98.73, 38.54 113.32 M36.29 113.21 C24.3 92.21, 9.53 71.08, -0.69 57.45 M37.33 113.41 C28.24 96.56, 15.88 80.99, -1 56.19 M-0.34 56.49 C12.76 37.08, 24.71 20.89, 36.68 -0.08 M-0.63 56.13 C16.03 34.87, 29.79 11.34, 38.1 -0.94" stroke="#000000" stroke-width="1" fill="none"></path></g><g transform="translate(320.1785485403879 384.5404899233864) rotate(0 32 12.5)"><text x="32" y="18" font-family="Virgil, Segoe UI Emoji" font-size="20px" fill="#000000" text-anchor="middle" style="white-space: pre;" direction="ltr">TCB</text></g><g stroke-linecap="round"><g transform="translate(215.91591270824495 330.4469559644114) rotate(0 56.83601498329921 16.483856889262313)"><path d="M-1.19 0.03 C17.57 5.34, 93.37 27.25, 112.55 32.98 M0.38 -1 C19.54 4.94, 96.02 28.42, 114.87 33.96" stroke="#000000" stroke-width="1" fill="none"></path></g><g transform="translate(215.91591270824495 330.4469559644114) rotate(0 56.83601498329921 16.483856889262313)"><path d="M84.97 34.38 C92.02 36.45, 103.26 33.56, 113.31 34.17 M85.1 35.77 C90.4 34.69, 97.4 35.14, 115.06 33.5" stroke="#000000" stroke-width="1" fill="none"></path></g><g transform="translate(215.91591270824495 330.4469559644114) rotate(0 56.83601498329921 16.483856889262313)"><path d="M90.89 14.74 C96.37 22.57, 105.86 25.49, 113.31 34.17 M91.03 16.12 C95.23 19.13, 101.01 23.62, 115.06 33.5" stroke="#000000" stroke-width="1" fill="none"></path></g></g><g transform="translate(246.1785485403879 361.5404899233864) rotate(0 23 12.5)"><text x="0" y="18" font-family="Virgil, Segoe UI Emoji" font-size="20px" fill="#000000" text-anchor="start" style="white-space: pre;" direction="ltr">ecall</text></g></svg>