<?xml version="1.0" encoding="utf-8"?>
<!-- Generator: Adobe Illustrator 24.3.0, SVG Export Plug-In . SVG Version: 6.00 Build 0)  -->
<svg version="1.1" id="Layer_1" xmlns="http://www.w3.org/2000/svg" xmlns:xlink="http://www.w3.org/1999/xlink" x="0px" y="0px"
	 viewBox="0 0 372.77 342.4" style="enable-background:new 0 0 372.77 342.4;" xml:space="preserve">
<style type="text/css">
	.st0{fill:#000563;}
</style>
<g>
	<path class="st0" d="M318.26,49.46c5.35,0,9.73-4.38,9.73-9.73v-0.05c0-5.35-4.38-9.73-9.73-9.73H54.48
		c-5.35,0-9.73,4.38-9.73,9.73v0.05c0,5.35,4.38,9.73,9.73,9.73h122.11v203.67c0,4.88,3.99,8.88,8.88,8.88h1.93
		c4.88,0,8.88-3.99,8.88-8.88V49.46H318.26z"/>
	<path class="st0" d="M146.7,69.03H53.74c-5.37,0-9.76,4.39-9.76,9.76l0,0c0,5.37,4.39,9.76,9.76,9.76h81.99v66.42h-71.9
		c-5.11,0-9.29,4.18-9.29,9.29v0.94c0,5.11,4.18,9.29,9.29,9.29h71.9v67.77H54.28c-5.35,0-9.74,4.38-9.74,9.74v0.05
		c0,5.35,4.38,9.74,9.74,9.74h92.44c3.73,0,6.98-2.13,8.62-5.23c1.03-1.64,1.64-3.56,1.64-5.63V79.88c0-2.21-0.68-4.26-1.85-5.96
		C153.44,71,150.29,69.03,146.7,69.03z"/>
	<path class="st0" d="M319.03,88.55c5.37,0,9.76-4.39,9.76-9.76l0,0c0-5.37-4.39-9.76-9.76-9.76h-92.96c-3.59,0-6.74,1.97-8.43,4.88
		c-1.16,1.7-1.85,3.76-1.85,5.96v171.04c0,2.07,0.61,3.99,1.64,5.63c1.63,3.1,4.89,5.23,8.62,5.23h92.44c5.35,0,9.74-4.38,9.74-9.74
		v-0.05c0-5.35-4.38-9.74-9.74-9.74h-81.45v-67.77h71.9c5.11,0,9.29-4.18,9.29-9.29v-0.94c0-5.11-4.18-9.29-9.29-9.29h-71.9v-66.4
		H319.03z"/>
</g>
<path class="st0" d="M45.25,283.78c0-0.63,0.54-1.18,1.18-1.18s1.18,0.54,1.18,1.18v29.74c0,0.63-0.54,1.18-1.18,1.18
	c-0.63,0-1.18-0.54-1.18-1.18V283.78z"/>
<path class="st0" d="M58.71,283.82c0-0.63,0.54-1.18,1.18-1.18h0.36c0.5,0,0.86,0.27,1.18,0.68l21.4,27.16v-26.75
	c0-0.63,0.5-1.13,1.13-1.13s1.13,0.5,1.13,1.13v29.92c0,0.54-0.41,1-0.95,1h-0.18c-0.45,0-0.82-0.32-1.18-0.77l-21.81-27.65v27.34
	c0,0.63-0.5,1.13-1.13,1.13s-1.13-0.5-1.13-1.13V283.82z"/>
<path class="st0" d="M104.69,284.95H94.53c-0.59,0-1.09-0.5-1.09-1.09s0.5-1.09,1.09-1.09h22.67c0.59,0,1.09,0.5,1.09,1.09
	s-0.5,1.09-1.09,1.09h-10.16v28.56c0,0.63-0.54,1.18-1.18,1.18s-1.18-0.54-1.18-1.18v-28.56H104.69z"/>
<path class="st0" d="M126.63,313.33v-29.38c0-0.63,0.54-1.18,1.18-1.18h20.49c0.59,0,1.09,0.5,1.09,1.09s-0.5,1.09-1.09,1.09h-19.31
	v12.47h17.27c0.59,0,1.09,0.5,1.09,1.09s-0.5,1.09-1.09,1.09h-17.27v12.74h19.54c0.59,0,1.09,0.5,1.09,1.09s-0.5,1.09-1.09,1.09
	h-20.72C127.17,314.51,126.63,313.97,126.63,313.33z"/>
<path class="st0" d="M156.96,298.74v-0.09c0-8.57,6.21-16.41,15.69-16.41c4.76,0,7.89,1.32,10.84,3.54
	c0.27,0.23,0.45,0.54,0.45,0.95c0,0.63-0.54,1.18-1.18,1.18c-0.18,0-0.45-0.09-0.73-0.32c-2.45-1.9-5.12-3.22-9.52-3.22
	c-7.71,0-13.1,6.53-13.1,14.19v0.09c0,8.21,5.12,14.33,13.6,14.33c4.04,0,7.8-1.68,10.11-3.63v-9.11h-9.88
	c-0.59,0-1.09-0.5-1.09-1.09s0.5-1.09,1.09-1.09h10.97c0.63,0,1.18,0.54,1.18,1.18v10.38c0,0.45-0.32,0.95-0.82,1.36
	c-2.99,2.31-6.94,4.08-11.65,4.08C162.9,315.06,156.96,307.67,156.96,298.74z"/>
<path class="st0" d="M195.27,283.96c0-0.63,0.54-1.18,1.18-1.18h12.15c3.9,0,7.03,1.22,8.93,3.13c1.5,1.5,2.4,3.63,2.4,5.89v0.09
	c0,5.3-3.94,8.34-9.29,9.07l9.02,11.7c0.23,0.27,0.36,0.54,0.36,0.82c0,0.64-0.59,1.22-1.22,1.22c-0.45,0-0.77-0.27-1.04-0.63
	l-9.75-12.69h-10.38v12.15c0,0.63-0.54,1.18-1.18,1.18c-0.63,0-1.18-0.54-1.18-1.18L195.27,283.96L195.27,283.96z M208.33,299.24
	c5.3,0,9.25-2.67,9.25-7.25v-0.09c0-4.26-3.36-6.94-9.11-6.94h-10.84v14.28H208.33z"/>
<path class="st0" d="M229.73,283.78c0-0.63,0.54-1.18,1.18-1.18s1.18,0.54,1.18,1.18v29.74c0,0.63-0.54,1.18-1.18,1.18
	c-0.63,0-1.18-0.54-1.18-1.18V283.78z"/>
<path class="st0" d="M251.11,287.2h-8.94c-0.92,0-1.69-1.3-1.69-2.21c0-0.92,0.78-2.2,1.69-2.2h22.25c0.92,0,1.69,1.29,1.69,2.2
	c0,0.92-0.78,2.21-1.69,2.21h-8.57v26.03c0,1.01-1.37,1.83-2.37,1.83c-1.01,0-2.37-0.82-2.37-1.83L251.11,287.2L251.11,287.2z"/>
<path class="st0" d="M274.04,313v-28.39c0-1.01,0.82-1.83,1.79-1.83h19.92c0.92,0,1.88,1.29,1.88,2.2c0,0.92-0.96,2.19-1.88,2.19
	h-16.93v9.85h14.87c0.92,0,1.65,1.21,1.65,2.08c0,0.92-0.73,2.32-1.65,2.32h-14.87v9.03h17.16c0.92,0,1.65,1.27,1.65,2.19
	s-0.73,2.2-1.65,2.2h-20.15C274.86,314.83,274.04,314,274.04,313z"/>
<path class="st0" d="M306.09,313v-28.39c0-1.01,0.82-1.83,1.79-1.83h19.92c0.92,0,1.88,1.29,1.88,2.2c0,0.92-0.96,2.19-1.88,2.19
	h-16.93v9.85h14.87c0.92,0,1.65,1.21,1.65,2.08c0,0.92-0.73,2.32-1.65,2.32h-14.87v9.03h17.16c0.92,0,1.65,1.27,1.65,2.19
	s-0.73,2.2-1.65,2.2h-20.15C306.91,314.83,306.09,314,306.09,313z"/>
</svg>
